<?xml version="1.0" encoding="UTF-8" standalone="no"?>
<!-- Created with Inkscape (http://www.inkscape.org/) -->

<svg
   xmlns:dc="http://purl.org/dc/elements/1.1/"
   xmlns:cc="http://creativecommons.org/ns#"
   xmlns:rdf="http://www.w3.org/1999/02/22-rdf-syntax-ns#"
   xmlns:svg="http://www.w3.org/2000/svg"
   xmlns="http://www.w3.org/2000/svg"
   xmlns:sodipodi="http://sodipodi.sourceforge.net/DTD/sodipodi-0.dtd"
   xmlns:inkscape="http://www.inkscape.org/namespaces/inkscape"
   width="52.59375"
   height="56.080021"
   id="svg2"
   version="1.1"
   inkscape:version="0.48.3.1 r9886"
   sodipodi:docname="transicon2.svg"
   inkscape:export-filename="/home/bodhi64/archivos/Pictures/iconos/transicon.png"
   inkscape:export-xdpi="90"
   inkscape:export-ydpi="90">
  <defs
     id="defs4">
    <inkscape:perspective
       sodipodi:type="inkscape:persp3d"
       inkscape:vp_x="0 : 526.18109 : 1"
       inkscape:vp_y="0 : 1000 : 0"
       inkscape:vp_z="744.09448 : 526.18109 : 1"
       inkscape:persp3d-origin="372.04724 : 350.78739 : 1"
       id="perspective3000" />
  </defs>
  <sodipodi:namedview
     id="base"
     pagecolor="#ffffff"
     bordercolor="#666666"
     borderopacity="1.0"
     inkscape:pageopacity="0.0"
     inkscape:pageshadow="2"
     inkscape:zoom="1.979899"
     inkscape:cx="-7.8724398"
     inkscape:cy="1.1890138"
     inkscape:document-units="px"
     inkscape:current-layer="layer1"
     showgrid="false"
     inkscape:window-width="1920"
     inkscape:window-height="1053"
     inkscape:window-x="0"
     inkscape:window-y="0"
     inkscape:window-maximized="1"
     fit-margin-top="0"
     fit-margin-left="0"
     fit-margin-right="0"
     fit-margin-bottom="0" />
  <metadata
     id="metadata7">
    <rdf:RDF>
      <cc:Work
         rdf:about="">
        <dc:format>image/svg+xml</dc:format>
        <dc:type
           rdf:resource="http://purl.org/dc/dcmitype/StillImage" />
        <dc:title></dc:title>
      </cc:Work>
    </rdf:RDF>
  </metadata>
  <g
     inkscape:label="Layer 1"
     inkscape:groupmode="layer"
     id="layer1"
     transform="translate(-29.5,-63.71875)">
    <rect
       style="fill:#000080;fill-rule:evenodd;stroke:#000000;stroke-width:0.06827734px;stroke-linecap:butt;stroke-linejoin:miter;stroke-opacity:1"
       id="rect2996"
       width="52.476009"
       height="27.89617"
       x="29.558296"
       y="63.762341"
       rx="5.0720305"
       ry="5.0720305" />
    <rect
       style="fill:#008000;fill-rule:evenodd;stroke:#000000;stroke-width:0.06827734px;stroke-linecap:butt;stroke-linejoin:miter;stroke-opacity:1"
       id="rect3020"
       width="45.843353"
       height="19.507811"
       x="33.069702"
       y="66.493431"
       rx="5.0720305"
       ry="3.3163276" />
    <rect
       style="fill:#dbe2e3"
       id="rect3022"
       width="51.890774"
       height="28.140263"
       x="29.948452"
       y="91.658508"
       rx="5.0720305"
       ry="2.8306773" />
    <rect
       style="fill:#93a7ac"
       id="rect3026"
       width="4.5744486"
       height="2.6572835"
       x="31.313999"
       y="95.169914"
       rx="0.88537699"
       ry="0.88576031" />
    <rect
       style="fill:#93a7ac"
       id="rect3026-5"
       width="4.5744486"
       height="2.6572835"
       x="36.331135"
       y="95.169914"
       rx="0.88537699"
       ry="0.88576031" />
    <rect
       style="fill:#93a7ac"
       id="rect3026-5-0"
       width="4.5744486"
       height="2.6572835"
       x="41.27449"
       y="95.169907"
       rx="0.88537699"
       ry="0.88576031" />
    <rect
       style="fill:#93a7ac"
       id="rect3026-5-5"
       width="4.5744486"
       height="2.6572835"
       x="46.144066"
       y="95.169914"
       rx="0.88537699"
       ry="0.88576031" />
    <rect
       style="fill:#93a7ac"
       id="rect3026-5-8"
       width="4.5744486"
       height="2.6572835"
       x="50.939857"
       y="95.169914"
       rx="0.88537699"
       ry="0.88576031" />
    <rect
       style="fill:#93a7ac"
       id="rect3026-3"
       width="4.5744486"
       height="2.6572835"
       x="55.883213"
       y="95.243713"
       rx="0.88537699"
       ry="0.88576031" />
    <rect
       style="fill:#93a7ac"
       id="rect3026-5-88"
       width="4.5744486"
       height="2.6572835"
       x="60.900349"
       y="95.243713"
       rx="0.88537699"
       ry="0.88576031" />
    <rect
       style="fill:#93a7ac"
       id="rect3026-5-0-3"
       width="4.5744486"
       height="2.6572835"
       x="65.843712"
       y="95.243713"
       rx="0.88537699"
       ry="0.88576031" />
    <rect
       style="fill:#93a7ac"
       id="rect3026-5-5-6"
       width="4.5744486"
       height="2.6572835"
       x="70.71328"
       y="95.243713"
       rx="0.88537699"
       ry="0.88576031" />
    <rect
       style="fill:#93a7ac"
       id="rect3026-5-8-4"
       width="4.5744486"
       height="2.6572835"
       x="75.509071"
       y="95.243713"
       rx="0.88537699"
       ry="0.88576031" />
    <rect
       style="fill:#93a7ac"
       id="rect3026-0"
       width="4.5744486"
       height="2.6572835"
       x="31.313999"
       y="98.68132"
       rx="0.88537699"
       ry="0.88576031" />
    <rect
       style="fill:#93a7ac"
       id="rect3026-5-85"
       width="4.5744486"
       height="2.6572835"
       x="36.331135"
       y="98.68132"
       rx="0.88537699"
       ry="0.88576031" />
    <rect
       style="fill:#93a7ac"
       id="rect3026-5-0-1"
       width="4.5744486"
       height="2.6572835"
       x="41.27449"
       y="98.68132"
       rx="0.88537699"
       ry="0.88576031" />
    <rect
       style="fill:#93a7ac"
       id="rect3026-5-5-7"
       width="4.5744486"
       height="2.6572835"
       x="46.144066"
       y="98.68132"
       rx="0.88537699"
       ry="0.88576031" />
    <rect
       style="fill:#93a7ac"
       id="rect3026-5-8-1"
       width="4.5744486"
       height="2.6572835"
       x="50.939857"
       y="98.681328"
       rx="0.88537699"
       ry="0.88576031" />
    <rect
       style="fill:#93a7ac"
       id="rect3026-3-8"
       width="4.5744486"
       height="2.6572835"
       x="55.883213"
       y="98.755127"
       rx="0.88537699"
       ry="0.88576031" />
    <rect
       style="fill:#93a7ac"
       id="rect3026-5-88-5"
       width="4.5744486"
       height="2.6572835"
       x="60.900349"
       y="98.755127"
       rx="0.88537699"
       ry="0.88576031" />
    <rect
       style="fill:#93a7ac"
       id="rect3026-5-0-3-1"
       width="4.5744486"
       height="2.6572835"
       x="65.843704"
       y="98.755127"
       rx="0.88537699"
       ry="0.88576031" />
    <rect
       style="fill:#93a7ac"
       id="rect3026-5-5-6-8"
       width="4.5744486"
       height="2.6572835"
       x="70.71328"
       y="98.755127"
       rx="0.88537699"
       ry="0.88576031" />
    <rect
       style="fill:#93a7ac"
       id="rect3026-5-8-4-7"
       width="4.5744486"
       height="2.6572835"
       x="75.509071"
       y="98.755135"
       rx="0.88537699"
       ry="0.88576031" />
    <rect
       style="fill:#5599ff"
       id="rect3026-1"
       width="4.5744486"
       height="2.6572835"
       x="31.313999"
       y="101.99764"
       rx="0.88537699"
       ry="0.88576031" />
    <rect
       style="fill:#93a7ac"
       id="rect3026-5-50"
       width="4.5744486"
       height="2.6572835"
       x="36.331135"
       y="101.99764"
       rx="0.88537699"
       ry="0.88576031" />
    <rect
       style="fill:#93a7ac"
       id="rect3026-5-0-0"
       width="4.5744486"
       height="2.6572835"
       x="41.27449"
       y="101.99764"
       rx="0.88537699"
       ry="0.88576031" />
    <rect
       style="fill:#93a7ac"
       id="rect3026-5-5-2"
       width="4.5744486"
       height="2.6572835"
       x="46.144066"
       y="101.99764"
       rx="0.88537699"
       ry="0.88576031" />
    <rect
       style="fill:#93a7ac"
       id="rect3026-5-8-3"
       width="4.5744486"
       height="2.6572835"
       x="50.939857"
       y="101.99764"
       rx="0.88537699"
       ry="0.88576031" />
    <rect
       style="fill:#93a7ac"
       id="rect3026-3-7"
       width="4.5744486"
       height="2.6572835"
       x="55.883213"
       y="102.07146"
       rx="0.88537699"
       ry="0.88576031" />
    <rect
       style="fill:#93a7ac"
       id="rect3026-5-88-2"
       width="4.5744486"
       height="2.6572835"
       x="60.900349"
       y="102.07146"
       rx="0.88537699"
       ry="0.88576031" />
    <rect
       style="fill:#93a7ac"
       id="rect3026-5-0-3-8"
       width="4.5744486"
       height="2.6572835"
       x="65.843712"
       y="102.07146"
       rx="0.88537699"
       ry="0.88576031" />
    <rect
       style="fill:#93a7ac"
       id="rect3026-5-5-6-7"
       width="4.5744486"
       height="2.6572835"
       x="70.71328"
       y="102.07146"
       rx="0.88537699"
       ry="0.88576031" />
    <rect
       style="fill:#93a7ac"
       id="rect3026-5-8-4-2"
       width="4.5744486"
       height="2.6572835"
       x="75.509071"
       y="102.07146"
       rx="0.88537699"
       ry="0.88576031" />
    <rect
       style="fill:#93a7ac"
       id="rect3026-5-0-8"
       width="4.5744486"
       height="2.6572835"
       x="41.176952"
       y="105.31398"
       rx="0.88537699"
       ry="0.88576031" />
    <rect
       style="fill:#93a7ac"
       id="rect3026-5-5-8"
       width="4.5744486"
       height="2.6572835"
       x="46.046524"
       y="105.31398"
       rx="0.88537699"
       ry="0.88576031" />
    <rect
       style="fill:#93a7ac"
       id="rect3026-5-8-46"
       width="4.5744486"
       height="2.6572835"
       x="50.842316"
       y="105.31398"
       rx="0.88537699"
       ry="0.88576031" />
    <rect
       style="fill:#93a7ac"
       id="rect3026-3-9"
       width="4.5744486"
       height="2.6572835"
       x="55.785679"
       y="105.38778"
       rx="0.88537699"
       ry="0.88576031" />
    <rect
       style="fill:#93a7ac"
       id="rect3026-5-88-6"
       width="4.5744486"
       height="2.6572835"
       x="60.802814"
       y="105.38778"
       rx="0.88537699"
       ry="0.88576031" />
    <rect
       style="fill:#93a7ac"
       id="rect3026-5-0-3-82"
       width="4.5744486"
       height="2.6572835"
       x="65.74617"
       y="105.38778"
       rx="0.88537699"
       ry="0.88576031" />
    <rect
       style="fill:#93a7ac"
       id="rect3026-5-5-6-5"
       width="4.5744486"
       height="2.6572835"
       x="70.615746"
       y="105.38778"
       rx="0.88537699"
       ry="0.88576031" />
    <rect
       style="fill:#93a7ac"
       id="rect3026-5-8-4-0"
       width="4.5744486"
       height="2.6572835"
       x="75.41153"
       y="105.38779"
       rx="0.88537699"
       ry="0.88576031" />
    <rect
       style="fill:#5599ff"
       id="rect3026-5-0-8-9"
       width="4.5744486"
       height="2.6572835"
       x="46.037079"
       y="109.89831"
       rx="0.88537699"
       ry="0.88576031" />
    <rect
       style="fill:#5599ff"
       id="rect3026-5-5-8-0"
       width="4.5744486"
       height="2.6572835"
       x="50.906654"
       y="109.89831"
       rx="0.88537699"
       ry="0.88576031" />
    <rect
       style="fill:#5599ff"
       id="rect3026-5-8-46-5"
       width="4.5744486"
       height="2.6572835"
       x="55.702454"
       y="109.89832"
       rx="0.88537699"
       ry="0.88576031" />
    <rect
       style="fill:#5599ff"
       id="rect3026-3-9-2"
       width="4.5744486"
       height="2.6572835"
       x="60.645809"
       y="109.97212"
       rx="0.88537699"
       ry="0.88576031" />
    <rect
       style="fill:#5599ff"
       id="rect3026-5-88-6-1"
       width="4.5744486"
       height="2.6572835"
       x="65.662941"
       y="109.97212"
       rx="0.88537699"
       ry="0.88576031" />
    <rect
       style="fill:#5599ff"
       id="rect3026-5-0-8-5"
       width="4.5744486"
       height="2.6572835"
       x="46.134624"
       y="113.40972"
       rx="0.88537699"
       ry="0.88576031" />
    <rect
       style="fill:#5599ff"
       id="rect3026-5-5-8-3"
       width="4.5744486"
       height="2.6572835"
       x="51.0042"
       y="113.40972"
       rx="0.88537699"
       ry="0.88576031" />
    <rect
       style="fill:#5599ff"
       id="rect3026-5-8-46-8"
       width="4.5744486"
       height="2.6572835"
       x="55.799988"
       y="113.40972"
       rx="0.88537699"
       ry="0.88576031" />
    <rect
       style="fill:#5599ff"
       id="rect3026-3-9-1"
       width="4.5744486"
       height="2.6572835"
       x="60.743347"
       y="113.48353"
       rx="0.88537699"
       ry="0.88576031" />
    <rect
       style="fill:#5599ff"
       id="rect3026-5-88-6-7"
       width="4.5744486"
       height="2.6572835"
       x="65.760483"
       y="113.48353"
       rx="0.88537699"
       ry="0.88576031" />
    <rect
       style="fill:#5599ff"
       id="rect3305"
       width="1.755703"
       height="3.4436126"
       x="72.182861"
       y="111.65401"
       rx="0.32919419"
       ry="0.45605746" />
    <rect
       style="fill:#5599ff"
       id="rect3305-0"
       width="1.755703"
       height="3.4436126"
       x="77.059814"
       y="111.78545"
       rx="0.32919419"
       ry="0.45605746" />
    <rect
       style="fill:#5599ff"
       id="rect3305-7"
       width="1.755703"
       height="3.4436126"
       x="109.50815"
       y="-76.928383"
       rx="0.32919419"
       ry="0.45605746"
       transform="matrix(0,1,-1,0,0,0)" />
    <rect
       style="fill:#5599ff"
       id="rect3305-1"
       width="1.755703"
       height="3.4436126"
       x="-117.21375"
       y="73.582306"
       rx="0.32919419"
       ry="0.45605746"
       transform="matrix(0,-1,1,0,0,0)" />
    <rect
       style="fill:#ffff00"
       id="rect3339"
       width="9.0711317"
       height="3.804023"
       x="36.678646"
       y="69.029449"
       rx="0.32919419"
       ry="0.45605746" />
    <rect
       style="fill:#ffff00"
       id="rect3339-5"
       width="9.0711317"
       height="3.804023"
       x="66.08667"
       y="68.980682"
       rx="0.32919419"
       ry="0.45605746" />
    <rect
       style="fill:#ffff00"
       id="rect3339-7"
       width="9.0711317"
       height="3.804023"
       x="51.358269"
       y="73.760094"
       rx="0.32919419"
       ry="0.45605746" />
    <rect
       style="fill:#ffff00"
       id="rect3339-2"
       width="34.528824"
       height="4.291718"
       x="39.165894"
       y="79.61937"
       rx="0.96752352"
       ry="0.45605746" />
    <rect
       style="fill:#ff0000"
       id="rect4141"
       width="4.0002904"
       height="1.6552927"
       x="31.508379"
       y="105.98604"
       rx="0.88537699"
       ry="0.88576031" />
  </g>
</svg>
